<?xml version="1.0" encoding="UTF-8"?>
<!-- GENERATED by packages/campus-map — do not edit by hand. -->
<!-- The per-building plan claim is carried by planKind in map_catalog.json. -->
<!-- Styles are inlined as presentation attributes: the Flutter renderer -->
<!-- ignores <style> blocks, which would leave every room unstyled.      -->
<svg xmlns="http://www.w3.org/2000/svg" width="1600" height="1000" viewBox="0 0 1600 1000" role="img">
  <defs>
    <g id="stairs" fill="none" stroke="#514B63" stroke-width="5" stroke-linecap="round">
      <path d="M0 0v58M12 0v58M24 0v58M36 0v58M48 0v58M60 0v58M72 0v58" />
    </g>
    <g id="wc-women" fill="none" stroke="#425C75" stroke-width="4" stroke-linecap="round" stroke-linejoin="round">
      <circle cx="0" cy="-12" r="6" />
      <path d="M0-5v19M-12 7h24M0 14l-10 22M0 14l10 22" />
    </g>
    <g id="wc-men" fill="none" stroke="#425C75" stroke-width="4" stroke-linecap="round" stroke-linejoin="round">
      <circle cx="0" cy="-12" r="6" />
      <path d="M0-5v24M-12 6h24M0 19l-10 18M0 19l10 18" />
    </g>
    <g id="accessible" fill="none" stroke="#425C75" stroke-width="4" stroke-linecap="round" stroke-linejoin="round">
      <circle cx="-5" cy="-15" r="6" />
      <path d="M-5-8v20l15 1 9 19M-5 1h14l8 10M-5 12a19 19 0 1 0 19 19" />
    </g>
    <g id="entrance" fill="none" stroke="#2F8B5D" stroke-width="5" stroke-linecap="round" stroke-linejoin="round">
      <path d="M-24 0h48M-24 0v-28a28 28 0 0 1 28 28" />
    </g>
  </defs>
  <rect width="1600" height="1000" fill="#F4F2F8" />
  <path d="M332 170H412V700H1188V170H1268V780H332Z" fill="#EDEAF4" stroke="#C8C3D2" stroke-width="4" />
  <rect x="605" y="418" width="390" height="272" rx="18" fill="#FDFBFC" stroke="#DDD8E5" stroke-width="3" stroke-dasharray="10 10" />
  <g fill="#E5DEF5" stroke="#4E4761" stroke-width="4">
    <rect id="room-ratke-gebaeude-ground-floor-109" class="room room" data-room-key="ratke-gebaeude-ground-floor-109" data-room-number="109" data-building-key="ratke-gebaeude" data-floor-key="ratke-gebaeude-ground-floor" data-focus-x="232" data-focus-y="199" x="142" y="128" width="180" height="142" rx="10" />
    <rect id="room-ratke-gebaeude-ground-floor-108" class="room room" data-room-key="ratke-gebaeude-ground-floor-108" data-room-number="108" data-building-key="ratke-gebaeude" data-floor-key="ratke-gebaeude-ground-floor" data-focus-x="243.5" data-focus-y="388" x="165" y="333" width="157" height="110" rx="10" />
    <rect id="room-ratke-gebaeude-ground-floor-107" class="room room" data-room-key="ratke-gebaeude-ground-floor-107" data-room-number="107" data-building-key="ratke-gebaeude" data-floor-key="ratke-gebaeude-ground-floor" data-focus-x="243.5" data-focus-y="515" x="165" y="455" width="157" height="120" rx="10" />
    <rect id="room-ratke-gebaeude-ground-floor-106" class="room room" data-room-key="ratke-gebaeude-ground-floor-106" data-room-number="106" data-building-key="ratke-gebaeude" data-floor-key="ratke-gebaeude-ground-floor" data-focus-x="243.5" data-focus-y="634.5" x="165" y="587" width="157" height="95" rx="10" />
  </g>
  <rect x="165" y="282" width="157" height="39" rx="8" fill="#D8EAF5" stroke="#4E4761" stroke-width="4" />
  <use href="#wc-women" transform="translate(274 302) scale(.55)" />
  <g fill="#E5DEF5" stroke="#4E4761" stroke-width="4">
    <rect id="room-ratke-gebaeude-ground-floor-110" class="room room" data-room-key="ratke-gebaeude-ground-floor-110" data-room-number="110" data-building-key="ratke-gebaeude" data-floor-key="ratke-gebaeude-ground-floor" data-focus-x="512" data-focus-y="199" x="422" y="128" width="180" height="142" rx="10" />
    <rect id="room-ratke-gebaeude-ground-floor-111" class="room room" data-room-key="ratke-gebaeude-ground-floor-111" data-room-number="111" data-building-key="ratke-gebaeude" data-floor-key="ratke-gebaeude-ground-floor" data-focus-x="499.5" data-focus-y="324" x="422" y="282" width="155" height="84" rx="10" />
    <rect id="room-ratke-gebaeude-ground-floor-112" class="room room" data-room-key="ratke-gebaeude-ground-floor-112" data-room-number="112" data-building-key="ratke-gebaeude" data-floor-key="ratke-gebaeude-ground-floor" data-focus-x="499.5" data-focus-y="414" x="422" y="378" width="155" height="72" rx="10" />
    <rect id="room-ratke-gebaeude-ground-floor-113" class="room room" data-room-key="ratke-gebaeude-ground-floor-113" data-room-number="113" data-building-key="ratke-gebaeude" data-floor-key="ratke-gebaeude-ground-floor" data-focus-x="499.5" data-focus-y="517" x="422" y="462" width="155" height="110" rx="10" />
    <rect id="room-ratke-gebaeude-ground-floor-114" class="room room" data-room-key="ratke-gebaeude-ground-floor-114" data-room-number="114" data-building-key="ratke-gebaeude" data-floor-key="ratke-gebaeude-ground-floor" data-focus-x="499.5" data-focus-y="626" x="422" y="584" width="155" height="84" rx="10" />
  </g>
  <rect x="422" y="680" width="155" height="32" rx="8" fill="#D9D8DF" stroke="#4E4761" stroke-width="4" />
  <g fill="#E5DEF5" stroke="#4E4761" stroke-width="4">
    <rect id="room-ratke-gebaeude-ground-floor-125" class="room room" data-room-key="ratke-gebaeude-ground-floor-125" data-room-number="125" data-building-key="ratke-gebaeude" data-floor-key="ratke-gebaeude-ground-floor" data-focus-x="1088" data-focus-y="199" x="998" y="128" width="180" height="142" rx="10" />
    <rect id="room-ratke-gebaeude-ground-floor-124" class="room room" data-room-key="ratke-gebaeude-ground-floor-124" data-room-number="124" data-building-key="ratke-gebaeude" data-floor-key="ratke-gebaeude-ground-floor" data-focus-x="1100.5" data-focus-y="338" x="1023" y="282" width="155" height="112" rx="10" />
    <rect id="room-ratke-gebaeude-ground-floor-123" class="room room" data-room-key="ratke-gebaeude-ground-floor-123" data-room-number="123" data-building-key="ratke-gebaeude" data-floor-key="ratke-gebaeude-ground-floor" data-focus-x="1100.5" data-focus-y="462" x="1023" y="406" width="155" height="112" rx="10" />
    <rect id="room-ratke-gebaeude-ground-floor-122" class="room room" data-room-key="ratke-gebaeude-ground-floor-122" data-room-number="122" data-building-key="ratke-gebaeude" data-floor-key="ratke-gebaeude-ground-floor" data-focus-x="1100.5" data-focus-y="575" x="1023" y="530" width="155" height="90" rx="10" />
  </g>
  <rect x="1023" y="632" width="155" height="48" rx="8" fill="#D8EAF5" stroke="#4E4761" stroke-width="4" />
  <use href="#wc-women" transform="translate(1128 657) scale(.55)" />
  <g fill="#E5DEF5" stroke="#4E4761" stroke-width="4">
    <rect id="room-ratke-gebaeude-ground-floor-126" class="room room" data-room-key="ratke-gebaeude-ground-floor-126" data-room-number="126" data-building-key="ratke-gebaeude" data-floor-key="ratke-gebaeude-ground-floor" data-focus-x="1368" data-focus-y="199" x="1278" y="128" width="180" height="142" rx="10" />
    <rect id="room-ratke-gebaeude-ground-floor-127" class="room room" data-room-key="ratke-gebaeude-ground-floor-127" data-room-number="127" data-building-key="ratke-gebaeude" data-floor-key="ratke-gebaeude-ground-floor" data-focus-x="1356.5" data-focus-y="388" x="1278" y="333" width="157" height="110" rx="10" />
    <rect id="room-ratke-gebaeude-ground-floor-128" class="room room" data-room-key="ratke-gebaeude-ground-floor-128" data-room-number="128" data-building-key="ratke-gebaeude" data-floor-key="ratke-gebaeude-ground-floor" data-focus-x="1356.5" data-focus-y="490" x="1278" y="455" width="157" height="70" rx="10" />
    <rect id="room-ratke-gebaeude-ground-floor-129" class="room room" data-room-key="ratke-gebaeude-ground-floor-129" data-room-number="129" data-building-key="ratke-gebaeude" data-floor-key="ratke-gebaeude-ground-floor" data-focus-x="1356.5" data-focus-y="572" x="1278" y="537" width="157" height="70" rx="10" />
    <rect id="room-ratke-gebaeude-ground-floor-130" class="room room" data-room-key="ratke-gebaeude-ground-floor-130" data-room-number="130" data-building-key="ratke-gebaeude" data-floor-key="ratke-gebaeude-ground-floor" data-focus-x="1356.5" data-focus-y="660.5" x="1278" y="619" width="157" height="83" rx="10" />
  </g>
  <rect x="1278" y="282" width="157" height="39" rx="8" fill="#D8EAF5" stroke="#4E4761" stroke-width="4" />
  <use href="#wc-men" transform="translate(1383 302) scale(.55)" />
  <rect x="650" y="190" width="300" height="205" rx="14" fill="#F8E3BF" stroke="#4E4761" stroke-width="5" />
  <rect x="650" y="430" width="104" height="50" rx="9" fill="#D8EAF5" stroke="#4E4761" stroke-width="4" />
  <rect x="650" y="492" width="104" height="50" rx="9" fill="#D8EAF5" stroke="#4E4761" stroke-width="4" />
  <use href="#wc-men" transform="translate(727 456) scale(.48)" />
  <use href="#wc-women" transform="translate(727 518) scale(.48)" />
  <rect x="846" y="462" width="108" height="55" rx="9" fill="#D8EAF5" stroke="#4E4761" stroke-width="4" />
  <use href="#accessible" transform="translate(927 490) scale(.48)" />
  <use href="#stairs" transform="translate(654 564)" />
  <use href="#stairs" transform="translate(850 564)" />
  <rect id="room-ratke-gebaeude-ground-floor-115" class="room room" data-room-key="ratke-gebaeude-ground-floor-115" data-room-number="115" data-building-key="ratke-gebaeude" data-floor-key="ratke-gebaeude-ground-floor" data-focus-x="702" data-focus-y="671" x="650" y="640" width="104" height="62" rx="9" fill="#E5DEF5" stroke="#4E4761" stroke-width="4" />
  <rect id="room-ratke-gebaeude-ground-floor-121" class="room room" data-room-key="ratke-gebaeude-ground-floor-121" data-room-number="121" data-building-key="ratke-gebaeude" data-floor-key="ratke-gebaeude-ground-floor" data-focus-x="902" data-focus-y="671" x="850" y="640" width="104" height="62" rx="9" fill="#E5DEF5" stroke="#4E4761" stroke-width="4" />
  <g fill="#E5DEF5" stroke="#4E4761" stroke-width="4">
    <rect id="room-ratke-gebaeude-ground-floor-105" class="room room" data-room-key="ratke-gebaeude-ground-floor-105" data-room-number="105" data-building-key="ratke-gebaeude" data-floor-key="ratke-gebaeude-ground-floor" data-focus-x="215" data-focus-y="816" x="140" y="756" width="150" height="120" rx="10" />
    <rect id="room-ratke-gebaeude-ground-floor-103" class="room room" data-room-key="ratke-gebaeude-ground-floor-103" data-room-number="103" data-building-key="ratke-gebaeude" data-floor-key="ratke-gebaeude-ground-floor" data-focus-x="400" data-focus-y="806" x="330" y="756" width="140" height="100" rx="10" />
    <rect id="room-ratke-gebaeude-ground-floor-102" class="room room" data-room-key="ratke-gebaeude-ground-floor-102" data-room-number="102" data-building-key="ratke-gebaeude" data-floor-key="ratke-gebaeude-ground-floor" data-focus-x="549.5" data-focus-y="806" x="482" y="756" width="135" height="100" rx="10" />
    <rect id="room-ratke-gebaeude-ground-floor-101" class="room room" data-room-key="ratke-gebaeude-ground-floor-101" data-room-number="101" data-building-key="ratke-gebaeude" data-floor-key="ratke-gebaeude-ground-floor" data-focus-x="696.5" data-focus-y="806" x="629" y="756" width="135" height="100" rx="10" />
    <rect id="room-ratke-gebaeude-ground-floor-135" class="room room" data-room-key="ratke-gebaeude-ground-floor-135" data-room-number="135" data-building-key="ratke-gebaeude" data-floor-key="ratke-gebaeude-ground-floor" data-focus-x="910" data-focus-y="806" x="868" y="756" width="84" height="100" rx="10" />
    <rect id="room-ratke-gebaeude-ground-floor-134" class="room room" data-room-key="ratke-gebaeude-ground-floor-134" data-room-number="134" data-building-key="ratke-gebaeude" data-floor-key="ratke-gebaeude-ground-floor" data-focus-x="1031.5" data-focus-y="806" x="964" y="756" width="135" height="100" rx="10" />
    <rect id="room-ratke-gebaeude-ground-floor-133" class="room room" data-room-key="ratke-gebaeude-ground-floor-133" data-room-number="133" data-building-key="ratke-gebaeude" data-floor-key="ratke-gebaeude-ground-floor" data-focus-x="1178.5" data-focus-y="806" x="1111" y="756" width="135" height="100" rx="10" />
    <rect id="room-ratke-gebaeude-ground-floor-131" class="room room" data-room-key="ratke-gebaeude-ground-floor-131" data-room-number="131" data-building-key="ratke-gebaeude" data-floor-key="ratke-gebaeude-ground-floor" data-focus-x="1381" data-focus-y="816" x="1306" y="756" width="150" height="120" rx="10" />
  </g>
  <rect x="298" y="756" width="24" height="100" rx="7" fill="#D9D8DF" stroke="#4E4761" stroke-width="4" />
  <rect x="776" y="784" width="55" height="72" rx="8" fill="#D9D8DF" stroke="#4E4761" stroke-width="4" />
  <rect x="1258" y="756" width="36" height="100" rx="8" fill="#D9D8DF" stroke="#4E4761" stroke-width="4" />
  <use href="#stairs" transform="translate(170 696) rotate(90) scale(.7)" />
  <use href="#stairs" transform="translate(1377 712) rotate(90) scale(.7)" />
  <use href="#stairs" transform="translate(350 120) rotate(90) scale(.58)" />
  <use href="#stairs" transform="translate(1208 120) rotate(90) scale(.58)" />
  <use href="#entrance" transform="translate(382 128) rotate(180)" />
  <use href="#entrance" transform="translate(1218 128) rotate(180)" />
  <use href="#entrance" transform="translate(800 890)" />
  <g fill="#242235" font-family="Arial, Helvetica, sans-serif" font-size="21" font-weight="700" text-anchor="middle" pointer-events="none">
    <text class="room-number" x="232" y="207">109</text>
    <text class="room-number" x="244" y="401">108</text>
    <text class="room-number" x="244" y="521">107</text>
    <text class="room-number" x="244" y="644">106</text>
    <text class="room-number" x="512" y="207">110</text>
    <text class="room-number" x="500" y="332">111</text>
    <text class="room-number" x="500" y="421">112</text>
    <text class="room-number" x="500" y="526">113</text>
    <text class="room-number" x="500" y="637">114</text>
    <text class="room-number" x="1088" y="207">125</text>
    <text class="room-number" x="1101" y="346">124</text>
    <text class="room-number" x="1101" y="470">123</text>
    <text class="room-number" x="1101" y="585">122</text>
    <text class="room-number" x="1368" y="207">126</text>
    <text class="room-number" x="1357" y="401">127</text>
    <text class="room-number" x="1357" y="497">128</text>
    <text class="room-number" x="1357" y="579">129</text>
    <text class="room-number" x="1357" y="668">130</text>
    <text class="room-number" x="702" y="680">115</text>
    <text class="room-number" x="902" y="680">121</text>
    <text class="room-number" x="215" y="824">105</text>
    <text class="room-number" x="400" y="816">103</text>
    <text class="room-number" x="550" y="816">102</text>
    <text class="room-number" x="696" y="816">101</text>
    <text class="room-number" x="910" y="816">135</text>
    <text class="room-number" x="1032" y="816">134</text>
    <text class="room-number" x="1178" y="816">133</text>
    <text class="room-number" x="1381" y="824">131</text>
  </g>
</svg>
